<?xml version="1.0" standalone="no"?>
<!DOCTYPE svg PUBLIC "-//W3C//DTD SVG 1.1//EN" "http://www.w3.org/Graphics/SVG/1.1/DTD/svg11.dtd" >
<svg xmlns="http://www.w3.org/2000/svg" xmlns:xlink="http://www.w3.org/1999/xlink" version="1.1">
<metadata></metadata>
<defs>
<font id="guardian_sans_xcond_regularRg" horiz-adv-x="737" >
<font-face units-per-em="2048" ascent="1536" descent="-512" />
<missing-glyph horiz-adv-x="266" />
<glyph unicode="&#xfb01;" horiz-adv-x="792" d="M29 920v131h104v151q0 151 57 228t166 77q74 0 119 -28v-113q-28 8 -74 8q-64 0 -88 -44.5t-24 -139.5v-139h407v-1051h-155v920h-252v-920h-156v920h-104zM539 1245v174h157v-174h-157z" />
<glyph unicode="&#xfb02;" horiz-adv-x="792" d="M29 920v131h104v118q0 170 77 254t245 84q74 0 145.5 -11.5t95.5 -25.5v-1470h-155v1366q-36 8 -84 8q-97 0 -132.5 -46t-35.5 -167v-110h153v-131h-153v-920h-156v920h-104z" />
<glyph unicode="&#xfb03;" horiz-adv-x="1200" d="M29 920v131h104v139q0 151 58 227t169 76q76 0 123 -31v-112q-35 10 -77 10q-67 0 -92 -44.5t-25 -139.5v-125h252v151q0 151 57 228t166 77q74 0 119 -28v-113q-28 8 -74 8q-64 0 -88.5 -44.5t-24.5 -139.5v-139h408v-1051h-156v920h-252v-920h-155v920h-252v-920h-156 v920h-104zM946 1245v174h158v-174h-158z" />
<glyph unicode="&#xfb04;" horiz-adv-x="1200" d="M29 920v131h104v139q0 151 58 227t169 76q76 0 123 -31v-112q-35 10 -77 10q-67 0 -92 -44.5t-25 -139.5v-125h252v118q0 170 77 254t244 84q74 0 146 -11.5t96 -25.5v-1470h-156v1366q-32 8 -84 8q-97 0 -132.5 -46t-35.5 -167v-110h154v-131h-154v-920h-155v920h-252 v-920h-156v920h-104z" />
<glyph horiz-adv-x="0" />
<glyph horiz-adv-x="682" />
<glyph unicode=" "  horiz-adv-x="266" />
<glyph unicode="&#x09;" horiz-adv-x="266" />
<glyph unicode="&#xa0;" horiz-adv-x="266" />
<glyph unicode="!" horiz-adv-x="415" d="M119 1419h178l-25 -1024h-129zM121 0v193h176v-193h-176z" />
<glyph unicode="&#x22;" horiz-adv-x="557" d="M72 1419h161l-20 -370h-121zM324 1419h161l-20 -370h-121z" />
<glyph unicode="#" horiz-adv-x="792" d="M14 461v137h142l30 276h-120v138h137l45 407h127l-45 -407h178l45 407h125l-45 -407h129v-138h-144l-30 -276h127v-137h-142l-49 -461h-127l49 461h-178l-49 -461h-129l51 461h-127zM285 598h178l31 276h-179z" />
<glyph unicode="$" horiz-adv-x="745" d="M49 53v131q98 -62 221 -65l47 559l-24 10q-236 97 -236 365q0 168 83 269t239 114l12 131h109l-13 -133q102 -12 170 -62v-133q-98 53 -180 61l-43 -497q64 -27 107 -56.5t79.5 -75.5t54 -113.5t17.5 -158.5q0 -175 -83 -286.5t-242 -126.5l-17 -199h-106l16 197 q-73 6 -128 25t-83 44zM207 1067q0 -87 28.5 -137t96.5 -82l37 450q-162 -26 -162 -231zM379 129q156 45 156 252q0 106 -26.5 161.5t-88.5 88.5z" />
<glyph unicode="%" horiz-adv-x="1222" d="M33 1073v31q0 161 63.5 247.5t190.5 86.5q258 0 258 -334v-27q0 -165 -63 -257.5t-191 -92.5q-132 0 -195 84t-63 262zM174 1059q0 -119 28.5 -167t90.5 -48q60 0 86.5 47t26.5 166v59q0 112 -29 158.5t-88 46.5q-58 0 -86.5 -45.5t-28.5 -159.5v-57zM193 -82l681 1542 h140l-682 -1542h-139zM678 328v30q0 161 63.5 247.5t190.5 86.5q258 0 258 -334v-26q0 -165 -63 -257.5t-191 -92.5q-132 0 -195 84t-63 262zM819 313q0 -119 28.5 -167t90.5 -48q60 0 86.5 47t26.5 166v60q0 112 -29 158t-88 46t-87 -45t-28 -159v-58z" />
<glyph unicode="&#x26;" horiz-adv-x="937" d="M41 379q0 138 54 241.5t173 184.5q-26 44 -38.5 66.5t-31.5 66t-27.5 88t-8.5 94.5q0 149 71 233.5t205 84.5q130 0 195 -73.5t65 -203.5q0 -127 -52 -209.5t-179 -169.5l238 -411q29 105 36 293h140q0 -262 -90 -441l129 -223h-172l-54 90q-114 -108 -270 -108 q-191 0 -287 109.5t-96 287.5zM205 395q0 -135 57 -206.5t162 -71.5q128 0 201 88l-289 489q-71 -58 -101 -130.5t-30 -168.5zM317 1139q0 -22 1.5 -41t7.5 -39.5t8.5 -31t14.5 -33t14 -27t17.5 -31.5t16.5 -29l9 -16q80 66 108.5 117t28.5 143q0 154 -113 154 q-62 0 -87.5 -41.5t-25.5 -124.5z" />
<glyph unicode="'" horiz-adv-x="305" d="M72 1419h161l-20 -370h-121z" />
<glyph unicode="(" horiz-adv-x="493" d="M68 590v55q0 254 91 485t208 363h127q-108 -144 -184.5 -370t-76.5 -457v-80q0 -224 77.5 -456t183.5 -376h-127q-53 58 -104 142t-95.5 190.5t-72 238.5t-27.5 265z" />
<glyph unicode=")" horiz-adv-x="491" d="M0 -246q108 146 185 369.5t77 445.5v80q0 232 -78 466.5t-184 377.5h127q53 -60 103.5 -146.5t95 -195t71.5 -241.5t27 -265v-55q0 -133 -27 -265t-71.5 -238.5t-95 -190.5t-103.5 -142h-127z" />
<glyph unicode="*" horiz-adv-x="565" d="M39 1073l151 84l-151 82l53 96l137 -88l-6 172h111l-6 -172l141 88l53 -96l-151 -80l151 -86l-51 -92l-141 88l6 -176h-111l6 176l-141 -88z" />
<glyph unicode="+" horiz-adv-x="768" d="M70 676v141h241v266h146v-266h241v-141h-241v-275h-146v275h-241z" />
<glyph unicode="," horiz-adv-x="362" d="M72 -188l39 393h174l-82 -393h-131z" />
<glyph unicode="-" horiz-adv-x="475" d="M88 494v137h299v-137h-299z" />
<glyph unicode="." horiz-adv-x="380" d="M102 0v190h177v-190h-177z" />
<glyph unicode="/" horiz-adv-x="532" d="M0 -246l358 1739h138l-361 -1739h-135z" />
<glyph unicode="0" horiz-adv-x="897" d="M74 643v131q0 335 86.5 499.5t283.5 164.5q198 0 288.5 -155.5t90.5 -496.5v-141q0 -127 -11.5 -227t-38.5 -183t-69 -138t-105.5 -85t-145.5 -30q-130 0 -211 60.5t-124.5 207.5t-43.5 393zM242 633q0 -128 9 -216.5t32 -159.5t65.5 -105.5t106.5 -34.5q61 0 101 33.5 t61.5 103t29.5 155.5t8 212v194q0 253 -49.5 370.5t-163.5 117.5q-110 0 -155 -119.5t-45 -358.5v-192z" />
<glyph unicode="1" horiz-adv-x="505" d="M37 1225v92l285 115h61v-1432h-160v1243z" />
<glyph unicode="2" horiz-adv-x="745" d="M41 0v119l297 463q82 128 121 228.5t39 223.5q0 127 -54.5 194.5t-177.5 67.5q-113 0 -209 -49v129q97 62 262 62q172 0 259.5 -102t87.5 -287q0 -109 -24.5 -203t-60 -163t-102.5 -173l-252 -367v-6h453v-137h-639z" />
<glyph unicode="3" horiz-adv-x="716" d="M37 43v133q85 -55 196 -55q242 0 242 287q0 139 -47.5 202.5t-159.5 63.5h-90v139h90q88 0 136.5 61.5t48.5 178.5q0 134 -52.5 189.5t-160.5 55.5q-98 0 -177 -36v127q82 49 228 49q157 0 241 -91t84 -257q0 -102 -26 -171t-66.5 -103t-101.5 -54v-6q109 -25 165 -107 t56 -246q0 -200 -95 -310.5t-263 -110.5q-162 0 -248 61z" />
<glyph unicode="4" horiz-adv-x="806" d="M20 330v116l480 973h141v-952h141v-137h-141v-330h-158v330h-463zM172 467h311v620h-6l-305 -614v-6z" />
<glyph unicode="5" horiz-adv-x="708" d="M41 31v131q88 -43 190 -43q137 0 192.5 77t55.5 238q0 148 -54.5 214.5t-186.5 66.5q-66 0 -162 -17l33 721h514v-139h-377l-21 -432q54 6 84 6q174 0 256 -100.5t82 -319.5q0 -208 -93 -330t-275 -122q-159 0 -238 49z" />
<glyph unicode="6" horiz-adv-x="823" d="M74 575v140q0 168 22 295t60 207.5t96 130.5t123.5 70t148.5 20q58 0 111.5 -13t77.5 -32v-127q-80 32 -176 32q-51 0 -88 -8t-78.5 -38.5t-67.5 -83t-43.5 -148t-17.5 -227.5q92 79 221 79q155 0 227 -114.5t72 -313.5q0 -216 -86.5 -339t-243.5 -123q-358 0 -358 593z M242 573q0 -232 47.5 -342t144.5 -110q160 0 160 309q0 145 -40 222t-142 77q-94 0 -170 -53v-103z" />
<glyph unicode="7" horiz-adv-x="626" d="M18 1280v139h588v-133l-338 -1286h-168l336 1272v8h-418z" />
<glyph unicode="8" horiz-adv-x="829" d="M57 336q0 134 59 234t158 163q-87 69 -135.5 152.5t-48.5 206.5q0 152 89 249t239 97q158 0 238.5 -88t80.5 -252q0 -120 -56.5 -216t-135.5 -147q227 -140 227 -377q0 -73 -21.5 -138.5t-64 -119.5t-114.5 -86t-164 -32q-164 0 -257.5 95.5t-93.5 258.5zM217 348 q0 -109 52 -168t141 -59q94 0 144 61.5t50 155.5q0 103 -58 178t-184 146q-63 -52 -104 -132t-41 -182zM254 1100q0 -92 45.5 -157t153.5 -140q64 63 93 131.5t29 157.5q0 206 -161 206q-75 0 -117.5 -51.5t-42.5 -146.5z" />
<glyph unicode="9" horiz-adv-x="823" d="M61 977q0 223 90 342t255 119q82 0 143 -28.5t99 -77.5t61 -126t32 -163t9 -199v-142q0 -170 -20 -295t-55.5 -206t-92.5 -130.5t-124.5 -69t-156.5 -19.5q-57 0 -111 14.5t-79 32.5v127q102 -35 178 -35q40 0 70 4t62.5 16t55 34t43.5 59.5t34 90.5t20.5 128.5 t7.5 171.5q-94 -80 -213 -80q-156 0 -232 116.5t-76 315.5zM229 989q0 -70 9 -123t30 -95t58 -63.5t90 -21.5q90 0 166 53v107q0 240 -40.5 346t-138.5 106q-89 0 -131.5 -74.5t-42.5 -234.5z" />
<glyph unicode=":" horiz-adv-x="393" d="M109 0v190h176v-190h-176zM109 618v191h176v-191h-176z" />
<glyph unicode=";" horiz-adv-x="393" d="M72 -188l39 393h174l-82 -393h-131zM111 618v191h176v-191h-176z" />
<glyph unicode="&#x3c;" horiz-adv-x="704" d="M70 592v129l548 346v-172l-401 -233l401 -244v-174z" />
<glyph unicode="=" horiz-adv-x="794" d="M94 408v135h606v-135h-606zM94 711v135h606v-135h-606z" />
<glyph unicode="&#x3e;" horiz-adv-x="704" d="M86 244v174l401 244l-401 233v172l549 -346v-129z" />
<glyph unicode="?" horiz-adv-x="624" d="M37 1270v131q84 37 217 37q158 0 243 -84.5t85 -247.5q0 -113 -33.5 -189t-124.5 -178q-72 -81 -90.5 -118.5t-18.5 -108.5v-117h-149v133q0 44 6 77.5t13.5 58.5t30 57t40.5 54t59 69q57 65 78 118t21 136q0 110 -53 155t-152 45q-86 0 -172 -28zM158 0v193h172v-193 h-172z" />
<glyph unicode="@" horiz-adv-x="1421" d="M86 440q0 223 53 403t146.5 297t221 179.5t277.5 62.5q557 0 557 -665q0 -133 -19 -242.5t-51.5 -184.5t-77 -126.5t-95.5 -75.5t-107 -25q-157 -3 -184 127h-6q-83 -124 -199 -124q-110 0 -164.5 78t-54.5 221q0 293 96 451.5t252 158.5q91 0 146 -51h8l10 43h135 l-90 -641q-21 -142 66 -142q92 0 149 146t57 381q0 129 -22.5 228t-72 173t-133.5 113t-200 39q-267 0 -417 -223.5t-150 -614.5q0 -604 481 -604q161 0 332 69v-106q-53 -32 -149 -57t-179 -25q-149 0 -260 39.5t-192.5 125.5t-122.5 229t-41 343zM543 393 q0 -108 24.5 -151t79.5 -43q37 0 75.5 20.5t61.5 46.5l74 549q-42 37 -110 37q-57 0 -99 -45t-64 -118t-32 -147t-10 -149z" />
<glyph unicode="A" horiz-adv-x="888" d="M29 0l313 1419h199l319 -1419h-158l-86 383h-356l-82 -383h-149zM291 518h297l-117 529q-7 33 -14.5 80.5t-10.5 78.5l-4 31h-6q-14 -116 -30 -190z" />
<glyph unicode="B" horiz-adv-x="843" d="M113 0v1419h276q104 0 175.5 -23t112.5 -69.5t59 -108t18 -147.5q0 -273 -205 -319v-9q121 -13 183.5 -90.5t62.5 -251.5q0 -198 -96.5 -299.5t-311.5 -101.5h-274zM272 137h99q149 0 202.5 66t53.5 211q0 143 -58 198.5t-190 55.5h-107v-531zM272 803h78q124 0 183 58 t59 190q0 130 -53 180.5t-172 50.5h-95v-479z" />
<glyph unicode="C" horiz-adv-x="817" d="M74 623v161q0 126 16 227t47 171.5t72 121t94.5 79.5t110 42t123.5 13q138 0 221 -62v-133q-110 55 -228 55q-69 0 -119 -23t-89.5 -78.5t-59.5 -156t-20 -247.5v-170q0 -257 67 -379.5t228 -122.5q125 0 235 65v-133q-92 -71 -250 -71q-148 0 -245 62t-150 205.5 t-53 373.5z" />
<glyph unicode="D" horiz-adv-x="942" d="M113 0v1419h274q240 0 362.5 -153.5t122.5 -483.5v-102q0 -326 -120.5 -503t-364.5 -177h-274zM272 137h119q160 0 237 123t77 389v133q0 142 -22.5 241t-67 155t-102.5 80t-138 24h-103v-1145z" />
<glyph unicode="E" horiz-adv-x="751" d="M113 0v1419h594v-137h-435v-477h346v-137h-346v-531h441v-137h-600z" />
<glyph unicode="F" horiz-adv-x="722" d="M113 0v1419h579v-137h-420v-502h336v-137h-336v-643h-159z" />
<glyph unicode="G" horiz-adv-x="923" d="M74 668v106q0 336 112.5 500t372.5 164q150 0 232 -62v-133q-110 55 -238 55q-176 0 -243.5 -119t-67.5 -391v-126q0 -290 66 -415.5t235 -125.5q79 0 133 20v451h-182v137h340v-680q-132 -67 -314 -67q-92 0 -160.5 20t-124 67.5t-90 126t-53 195.5t-18.5 277z" />
<glyph unicode="H" horiz-adv-x="962" d="M113 0v1419h159v-614h418v614h160v-1419h-160v668h-418v-668h-159z" />
<glyph unicode="I" horiz-adv-x="385" d="M113 0v1419h159v-1419h-159z" />
<glyph unicode="J" horiz-adv-x="600" d="M33 16v129q68 -20 160 -20q79 0 109 44t30 146v1104h160v-1100q0 -78 -13.5 -136.5t-45 -104t-87.5 -69t-137 -23.5q-101 0 -176 30z" />
<glyph unicode="K" horiz-adv-x="880" d="M113 0v1419h159v-1419h-159zM307 727l361 692h176l-363 -669l371 -750h-182z" />
<glyph unicode="L" horiz-adv-x="720" d="M113 0v1419h159v-1282h410v-137h-569z" />
<glyph unicode="M" horiz-adv-x="1173" d="M113 0v1419h235l182 -950l54 -313h4q24 178 51 313l178 950h244v-1419h-152v872l15 383h-4q-36 -200 -54 -294l-198 -961h-179l-190 936l-53 313h-4q12 -307 12 -377v-872h-141z" />
<glyph unicode="N" horiz-adv-x="958" d="M113 0v1419h211l311 -946q16 -47 36 -121.5t32 -125.5l12 -50h4q-19 125 -19 270v973h146v-1419h-195l-305 909q-24 71 -49 154.5t-38 131.5l-13 48h-4q18 -110 18 -317v-926h-147z" />
<glyph unicode="O" horiz-adv-x="962" d="M74 639v137q0 332 95 497t306 165q213 0 313.5 -155t100.5 -497v-155q0 -319 -94.5 -484t-311.5 -165q-81 0 -144 21t-114 68.5t-83.5 123t-50 186.5t-17.5 258zM242 639q0 -131 11.5 -224t38 -162t73.5 -102.5t116 -33.5q129 0 184.5 121t55.5 366v182q0 264 -54 390.5 t-188 126.5q-68 0 -115 -34t-73.5 -101t-37.5 -152t-11 -201v-176z" />
<glyph unicode="P" horiz-adv-x="821" d="M113 0v1419h278q196 0 287.5 -97t91.5 -325q0 -205 -98.5 -315.5t-284.5 -110.5h-115v-571h-159zM272 709h101q123 0 176 68.5t53 219.5q0 161 -52 223t-177 62h-101v-573z" />
<glyph unicode="Q" horiz-adv-x="970" d="M74 645v131q0 331 96 496.5t305 165.5q212 0 313 -155t101 -497v-149q0 -264 -60 -415t-186 -202l324 -100l-43 -145l-584 229q-51 20 -89.5 49t-73 78.5t-56.5 117.5t-34.5 168t-12.5 228zM242 635q0 -132 11 -225t37.5 -163t74 -104t116.5 -34q130 0 185 122.5 t55 368.5v188q0 262 -55.5 389.5t-186.5 127.5q-128 0 -182.5 -126.5t-54.5 -361.5v-182z" />
<glyph unicode="R" horiz-adv-x="843" d="M113 0v1419h278q208 0 294.5 -91.5t86.5 -313.5q0 -159 -51.5 -244.5t-147.5 -120.5v-10l265 -639h-176l-240 606h-150v-606h-159zM272 743h121q110 0 160.5 63.5t50.5 199.5q0 154 -47.5 215t-177.5 61h-107v-539z" />
<glyph unicode="S" horiz-adv-x="739" d="M51 51v139q142 -69 244 -69q116 0 171.5 63t55.5 203q0 84 -18 135.5t-50.5 80t-93.5 54.5l-77 35q-107 48 -166.5 134t-59.5 239q0 182 92.5 277.5t266.5 95.5q137 0 221 -54v-137q-91 51 -221 51q-106 0 -153.5 -53.5t-47.5 -169.5q0 -95 28 -143.5t105 -83.5l78 -35 q64 -28 106 -56.5t79.5 -74.5t55 -114t17.5 -162q0 -90 -20 -164t-62.5 -134t-117.5 -93t-177 -33q-149 0 -256 69z" />
<glyph unicode="T" horiz-adv-x="753" d="M23 1282v137h702v-137h-268v-1282h-160v1282h-274z" />
<glyph unicode="U" horiz-adv-x="940" d="M106 369v1050h160v-1034q0 -138 48.5 -204t160.5 -66t156.5 65t44.5 207v1032h158v-1044q0 -188 -90 -290.5t-275 -102.5q-363 0 -363 387z" />
<glyph unicode="V" horiz-adv-x="862" d="M29 1419h168l206 -1016q8 -39 15 -86t10 -75l4 -27h4q13 92 31 188l207 1016h160l-316 -1419h-182z" />
<glyph unicode="W" horiz-adv-x="1277" d="M33 1419h162l147 -1003l20 -183h5q12 117 22 183l172 1003h166l164 -995l27 -195h4q12 127 22 195l148 995h153l-235 -1419h-187l-151 903q-10 57 -18 119.5t-10 96.5l-3 34h-4q-11 -121 -31 -248l-155 -905h-193z" />
<glyph unicode="X" horiz-adv-x="866" d="M37 0l325 727l-296 692h172l145 -360l68 -168h4q32 84 63 168l139 360h160l-282 -682l294 -737h-163l-160 416l-64 155h-6q-40 -97 -69 -165l-170 -406h-160z" />
<glyph unicode="Y" horiz-adv-x="835" d="M25 1419h170l167 -501q21 -63 36.5 -113t20.5 -69l5 -19h4q21 68 66 205l163 497h154l-309 -878v-541h-164v535z" />
<glyph unicode="Z" horiz-adv-x="755" d="M49 0v117l473 1159v6h-438v137h625v-119l-484 -1157v-6h471v-137h-647z" />
<glyph unicode="[" horiz-adv-x="505" d="M111 -246v1739h346v-123h-195v-1493h195v-123h-346z" />
<glyph unicode="\" horiz-adv-x="520" d="M25 1493h137l358 -1739h-135z" />
<glyph unicode="]" horiz-adv-x="505" d="M49 -123h195v1493h-195v123h346v-1739h-346v123z" />
<glyph unicode="^" horiz-adv-x="669" d="M51 946l219 473h129l217 -473h-129l-153 311l-154 -311h-129z" />
<glyph unicode="_" horiz-adv-x="493" d="M0 -98h494v-109h-494v109z" />
<glyph unicode="`" horiz-adv-x="722" d="M150 1470h167l125 -268h-127z" />
<glyph unicode="a" d="M43 287q0 140 67.5 215t211.5 102l167 31v104q0 105 -39 148t-141 43q-104 0 -192 -41v117q97 59 248 59q146 0 213 -71t67 -214v-780h-127l-16 61h-8q-32 -32 -82 -53.5t-101 -21.5q-128 0 -198 75.5t-70 225.5zM205 301q0 -97 35.5 -143.5t115.5 -46.5q74 0 133 39v356 l-114 -17q-87 -12 -128.5 -57t-41.5 -131z" />
<glyph unicode="b" horiz-adv-x="823" d="M96 35v1458h156v-496h6q103 68 211 68q55 0 98.5 -13t81 -44.5t62.5 -82.5t39 -129t14 -182v-104q0 -524 -381 -524q-84 0 -164.5 15.5t-122.5 33.5zM252 133q54 -16 135 -16q50 0 87.5 17.5t67 58t45 115t15.5 181.5v121q0 127 -21.5 198.5t-60 97.5t-104.5 26 q-77 0 -164 -45v-754z" />
<glyph unicode="c" horiz-adv-x="665" d="M57 481v92q0 492 377 492q113 0 182 -51v-131q-96 49 -188 49q-52 0 -90 -17t-61 -45.5t-36.5 -74.5t-18.5 -94.5t-5 -114.5v-105q0 -198 53 -280t164 -82q95 0 195 57v-127q-82 -63 -211 -63q-178 0 -269.5 116.5t-91.5 378.5z" />
<glyph unicode="d" horiz-adv-x="823" d="M59 483v64q0 518 353 518q42 0 87 -10.5t72 -28.5v467h156v-1493h-133l-12 72h-7q-35 -36 -88.5 -61t-109.5 -25q-79 0 -136 25.5t-99 83t-62.5 154t-20.5 234.5zM221 489q0 -183 44 -277.5t151 -94.5q83 0 155 57v731q-56 27 -137 27q-121 0 -167 -88.5t-46 -284.5v-70z " />
<glyph unicode="e" horiz-adv-x="757" d="M57 483v76q0 254 78.5 380t249.5 126q165 0 242.5 -111t77.5 -379v-108h-488q0 -182 56 -265t180 -83q117 0 229 71v-116q-32 -34 -100 -61t-142 -27q-198 0 -290.5 119.5t-92.5 377.5zM217 596h328q0 183 -35.5 260.5t-128.5 77.5q-96 0 -130 -79t-34 -259z" />
<glyph unicode="f" horiz-adv-x="468" d="M29 920v131h104v151q0 305 236 305q81 0 127 -32v-113q-35 12 -86 12q-70 0 -95.5 -44t-25.5 -140v-139h160v-131h-160v-920h-156v920h-104z" />
<glyph unicode="g" horiz-adv-x="747" d="M18 -129q0 171 166 238v8q-108 44 -108 145q0 55 26 95.5t74 80.5q-47 30 -82 97.5t-35 156.5v41q0 151 83.5 241.5t213.5 90.5q61 0 115 -14h258v-127h-119q54 -70 54 -183v-41q0 -152 -84.5 -237.5t-217.5 -85.5q-68 0 -112 20q-33 -37 -33 -88q0 -80 92 -80h127 q155 0 225 -74t70 -214q0 -150 -97.5 -238t-273.5 -88q-160 0 -251 69t-91 187zM170 -96q0 -77 49 -121.5t139 -44.5q117 0 169.5 48.5t52.5 145.5q0 154 -154 154h-145q-47 -20 -79 -69t-32 -113zM209 692q0 -94 43 -143t110 -49q69 0 109.5 48t40.5 140v55 q0 100 -41 149.5t-109 49.5q-153 0 -153 -194v-56z" />
<glyph unicode="h" horiz-adv-x="819" d="M96 0v1493h156v-516h6q118 88 248 88q106 0 162.5 -59t56.5 -175v-831h-156v821q0 59 -31 85t-94 26q-101 0 -192 -60v-872h-156z" />
<glyph unicode="i" horiz-adv-x="352" d="M96 1245v174h160v-174h-160zM98 0v1051h156v-1051h-156z" />
<glyph unicode="j" horiz-adv-x="346" d="M-88 -260q48 -6 72 -6q61 0 85.5 37t24.5 123v1157h156v-1164q0 -134 -50.5 -210t-170.5 -76q-70 0 -117 28v111zM92 1245v174h158v-174h-158z" />
<glyph unicode="k" horiz-adv-x="731" d="M96 0v1493h156v-1493h-156zM272 543l256 508h168l-260 -490l277 -561h-174z" />
<glyph unicode="l" horiz-adv-x="348" d="M96 0v1493h156v-1493h-156z" />
<glyph unicode="m" horiz-adv-x="1230" d="M96 0v1051h150v-78h6q118 92 233 92q72 0 116 -25t69 -77h6q61 47 120.5 74.5t133.5 27.5q207 0 207 -234v-831h-156v827q0 51 -26 78t-89 27q-91 0 -174 -64q2 -20 2 -80v-788h-155v827q0 53 -26.5 79t-84.5 26q-87 0 -176 -60v-872h-156z" />
<glyph unicode="n" horiz-adv-x="819" d="M96 0v1051h150v-78h6q124 92 256 92q217 0 217 -236v-829h-156v821q0 59 -31 85t-94 26q-101 0 -192 -60v-872h-156z" />
<glyph unicode="o" horiz-adv-x="806" d="M55 479v92q0 228 90 361t258 133q349 0 349 -494v-92q0 -228 -88.5 -360.5t-260.5 -132.5q-348 0 -348 493zM217 449q0 -71 9.5 -128.5t31 -105t59 -74t89.5 -26.5q50 0 86.5 26.5t57 74t30.5 105.5t10 128v153q0 334 -187 334q-186 0 -186 -334v-153z" />
<glyph unicode="p" horiz-adv-x="823" d="M96 -385v1436h150v-76h6q34 36 91 63t124 27q155 0 226 -110.5t71 -350.5v-104q0 -95 -11 -172t-35.5 -142t-63 -108.5t-95.5 -67.5t-131 -24q-53 0 -100.5 14.5t-75.5 34.5v-420h-156zM252 152q20 -12 62.5 -23.5t84.5 -11.5q111 0 157 92t46 283v108q0 172 -38.5 252 t-141.5 80q-93 0 -170 -60v-720z" />
<glyph unicode="q" horiz-adv-x="821" d="M59 442v101q0 522 390 522q170 0 278 -59v-1391h-156v436h-6q-36 -25 -92 -45t-111 -20q-69 0 -121.5 21.5t-95 71.5t-64.5 141.5t-22 221.5zM221 444q0 -181 44.5 -254t148.5 -73q88 0 157 51v743q-57 21 -129 21q-51 0 -89.5 -17t-69 -57.5t-46.5 -114.5t-16 -182v-117 z" />
<glyph unicode="r" horiz-adv-x="505" d="M96 0v1051h150v-107h6q89 121 192 121q34 0 52 -6v-146q-25 5 -47 5q-117 0 -197 -74v-844h-156z" />
<glyph unicode="s" horiz-adv-x="598" d="M41 774q0 136 79 213.5t216 77.5q108 0 176 -37v-129q-83 33 -168 33q-154 0 -154 -148q0 -57 24 -88.5t83 -60.5l65 -31q101 -47 150 -112t49 -181q0 -155 -79 -240t-228 -85q-132 0 -209 51v129q101 -47 195 -47q90 0 129 45t39 131q0 67 -28.5 103t-96.5 69l-66 31 q-176 83 -176 276z" />
<glyph unicode="t" horiz-adv-x="505" d="M29 920v131h102v243h156v-243h176v-131h-176v-691q0 -66 22 -89t74 -23q41 0 88 14v-102q-21 -17 -60 -29t-83 -12q-98 0 -147.5 52t-49.5 173v707h-102z" />
<glyph unicode="u" horiz-adv-x="808" d="M94 244v807h156v-822q0 -52 26 -81t101 -29q48 0 101 20t79 39v873h156v-1051h-133l-15 78h-8q-120 -92 -246 -92q-217 0 -217 258z" />
<glyph unicode="v" horiz-adv-x="735" d="M20 1051h166l150 -666q11 -50 20 -97.5t12 -69.5l3 -23h6q10 77 35 190l149 666h154l-262 -1051h-166z" />
<glyph unicode="w" horiz-adv-x="1083" d="M20 1051h160l109 -619l33 -213h4q13 92 36 213l111 619h150l114 -619l35 -211h6q13 84 33 209l102 621h150l-199 -1051h-174l-108 547q-12 58 -21 116t-13 87l-3 28h-4q-12 -100 -39 -231l-107 -547h-166z" />
<glyph unicode="x" horiz-adv-x="712" d="M23 0l251 528l-239 523h174l100 -244l60 -139h2l53 141l94 242h158l-225 -516l239 -535h-166l-108 264l-56 131h-2q-32 -69 -61 -135l-113 -260h-161z" />
<glyph unicode="y" d="M16 1051h172l162 -668l27 -135h4q17 88 27 131l149 672h160l-293 -1160q-39 -152 -92 -221t-160 -69q-63 0 -113 26v111q46 -8 86 -8q58 0 87 36.5t55 143.5l20 82z" />
<glyph unicode="z" horiz-adv-x="671" d="M51 0v113l381 800v7h-360v131h549v-107l-392 -807v-6h387v-131h-565z" />
<glyph unicode="{" horiz-adv-x="550" d="M23 567v131q88 0 122.5 45.5t34.5 149.5v328q0 70 13 118.5t47 89.5t98.5 63t161.5 26v-129q-30 -3 -46.5 -5.5t-37.5 -8t-32 -13.5t-22.5 -20.5t-17 -31t-9 -44.5t-3.5 -60v-321q0 -37 -2.5 -64.5t-12.5 -59t-27.5 -54t-48.5 -41.5t-75 -29v-6q54 -13 89 -37t51 -60 t21 -69.5t5 -81.5v-322q0 -47 7 -78.5t17.5 -50t34.5 -29.5t46 -15.5t63 -8.5v-129q-97 4 -161.5 26.5t-98.5 64t-47 90t-13 118.5v328q0 102 -34 146t-123 44z" />
<glyph unicode="|" horiz-adv-x="419" d="M143 -246v1739h133v-1739h-133z" />
<glyph unicode="}" horiz-adv-x="550" d="M51 -121q41 4 63 8.5t46 15.5t34.5 29.5t17.5 50t7 78.5v322q0 48 5 81.5t21 69.5t51 60t89 37v6q-44 10 -75 29t-48.5 41.5t-27.5 54t-12.5 59t-2.5 64.5v321q0 34 -3.5 60t-9 44.5t-17 31t-22.5 20.5t-32 13.5t-37.5 8t-46.5 5.5v129q78 -4 135 -19.5t92 -40 t55.5 -62.5t28 -79t7.5 -96v-328q0 -104 35 -148.5t124 -44.5v-131q-89 0 -124 -45t-35 -147v-328q0 -70 -12.5 -118.5t-46 -90t-98 -64t-161.5 -26.5v129z" />
<glyph unicode="~" horiz-adv-x="616" d="M51 506q4 101 48.5 152t109.5 51q46 0 104.5 -33t87.5 -33q24 0 39.5 20t18.5 50h108q-3 -91 -45 -147t-106 -56q-40 0 -77 16t-66 32.5t-50 16.5q-52 0 -63 -69h-109z" />
<glyph unicode="&#xa1;" horiz-adv-x="415" d="M119 -246l24 1024h129l25 -1024h-178zM121 981v193h176v-193h-176z" />
<glyph unicode="&#xa2;" horiz-adv-x="665" d="M57 481v92q0 128 24 221.5t71 150.5t109.5 85.5t144.5 32.5l14 133h119l-15 -141q54 -15 92 -41v-127q-69 31 -106 39l-84 -811h8q95 0 195 57v-123q-82 -63 -211 -63h-6l-21 -205h-110l20 219q-123 31 -183.5 146.5t-60.5 334.5zM217 481q0 -271 98 -336l78 789 q-56 -7 -92 -34.5t-54 -77.5t-24 -103.5t-6 -132.5v-105z" />
<glyph unicode="&#xa3;" horiz-adv-x="782" d="M76 0v119q76 53 98.5 121t22.5 215v188h-109v125h109v297q0 198 85.5 285.5t231.5 87.5q117 0 188 -43v-133q-62 30 -143 30q-108 0 -152.5 -52.5t-44.5 -182.5v-289h271v-125h-271v-170q0 -137 -22 -205t-80 -123v-4h453v-141h-637z" />
<glyph unicode="&#xa5;" horiz-adv-x="811" d="M29 1419h178l117 -338q25 -73 47.5 -144.5t32.5 -106.5l10 -35h4q33 120 88 282l117 342h161l-266 -700h201v-137h-230v-146h230v-137h-230v-299h-163v299h-232v137h232v146h-232v137h203z" />
<glyph unicode="&#xa6;" horiz-adv-x="434" d="M147 -246v797h140v-797h-140zM147 709v772h140v-772h-140z" />
<glyph unicode="&#xa7;" d="M39 602q0 194 170 260q-105 91 -105 260q0 144 78 230t226 86q143 0 208 -49v-134q-79 48 -190 48q-93 0 -131.5 -42t-38.5 -137q0 -119 100 -170l129 -63q56 -27 91.5 -51t66 -59t44 -82t13.5 -111q0 -200 -147 -269q94 -71 94 -245q0 -165 -84 -251.5t-237 -86.5 q-160 0 -236 61v133q103 -59 219 -59q82 0 131 45.5t49 140.5q0 79 -24 115.5t-92 69.5l-131 63q-104 50 -153.5 117.5t-49.5 179.5zM188 618q0 -65 29 -106t90 -70l115 -55l18 -8q111 45 111 174q0 76 -32 122.5t-95 74.5l-115 51q-121 -42 -121 -183z" />
<glyph unicode="&#xa8;" horiz-adv-x="753" d="M150 1245v174h157v-174h-157zM442 1245v174h158v-174h-158z" />
<glyph unicode="&#xa9;" horiz-adv-x="1153" d="M49 713q0 356 141 540.5t390 184.5q252 0 390 -183t138 -542q0 -355 -140.5 -543t-387.5 -188q-250 0 -390.5 183.5t-140.5 547.5zM156 713q0 -317 110 -477t314 -160q206 0 315 159.5t109 477.5q0 317 -109.5 473.5t-314.5 156.5q-207 0 -315.5 -156t-108.5 -474z M342 682v70q0 368 268 368q92 0 150 -37v-127q-67 39 -139 39q-36 0 -62 -12.5t-40.5 -32.5t-23.5 -51.5t-11.5 -63t-2.5 -73.5v-80q0 -132 37.5 -190t114.5 -58q14 0 26.5 1t24.5 4.5t20 5.5t19.5 7t15 6.5t15.5 7.5l12 7v-119q-71 -43 -162 -43q-262 0 -262 371z" />
<glyph unicode="&#xaa;" horiz-adv-x="690" d="M43 739q0 125 66 192.5t202 92.5l135 25v84q0 95 -33 133.5t-124 38.5q-94 0 -174 -37v110q94 54 231 54q250 0 250 -256v-701h-125l-14 55h-6q-67 -67 -154 -67q-124 0 -189 70t-65 206zM199 748q0 -84 31 -125t96 -41q67 0 120 34v312l-92 -13q-82 -10 -118.5 -51 t-36.5 -116z" />
<glyph unicode="&#xab;" horiz-adv-x="720" d="M61 485v64l168 371h148l-180 -404l180 -401h-148zM342 485v64l168 371h147l-180 -404l180 -401h-147z" />
<glyph unicode="&#xad;" horiz-adv-x="475" d="M88 494v137h299v-137h-299z" />
<glyph unicode="&#xae;" horiz-adv-x="638" d="M35 1049q0 191 76 290t211 99q136 0 209 -98t73 -291q0 -191 -75 -292.5t-207 -101.5q-136 0 -211.5 99t-75.5 295zM96 1049q0 -168 58.5 -254t167.5 -86q108 0 165.5 85.5t57.5 254.5q0 167 -57.5 251t-165.5 84q-226 0 -226 -335zM209 852v412h115q59 0 85.5 -28.5 t26.5 -90.5q0 -93 -45 -115v-2l70 -176h-84l-58 164h-34v-164h-76zM285 1083h30q41 0 41 56q0 32 -9.5 43.5t-35.5 11.5h-26v-111z" />
<glyph unicode="&#xaf;" horiz-adv-x="722" d="M182 1245v131h357v-131h-357z" />
<glyph unicode="&#xb0;" horiz-adv-x="614" d="M61 1188q0 107 67.5 178.5t176.5 71.5q113 0 180.5 -68.5t67.5 -181.5q0 -110 -68.5 -180t-177.5 -70t-177.5 69t-68.5 181zM170 1188q0 -73 39 -114.5t98 -41.5q63 0 100 40.5t37 115.5q0 74 -38.5 114.5t-102.5 40.5q-60 0 -96.5 -40t-36.5 -115z" />
<glyph unicode="&#xb4;" horiz-adv-x="722" d="M281 1202l125 268h167l-165 -268h-127z" />
<glyph unicode="&#xb6;" horiz-adv-x="880" d="M57 1065q0 163 85 258.5t257 95.5h369v-1665h-104v1563h-115v-1563h-107v940h-73q-140 0 -226 94.5t-86 276.5z" />
<glyph unicode="&#xb7;" horiz-adv-x="374" d="M104 569v191h168v-191h-168z" />
<glyph unicode="&#xb8;" horiz-adv-x="722" d="M293 -340q82 9 116.5 28.5t34.5 57.5q0 36 -28.5 50t-89.5 14v190h90v-102q67 -3 108 -38.5t41 -101.5q0 -93 -63.5 -143t-208.5 -57v102z" />
<glyph unicode="&#xba;" horiz-adv-x="747" d="M55 905v84q0 205 81.5 324t236.5 119q164 0 241.5 -111t77.5 -332v-84q0 -206 -80 -324t-239 -118q-318 0 -318 442zM211 879q0 -132 38.5 -212.5t125.5 -80.5q57 0 94.5 42t52.5 105t15 146v137q0 293 -164 293q-45 0 -77.5 -23.5t-50.5 -66t-26 -92.5t-8 -111v-137z " />
<glyph unicode="&#xbb;" horiz-adv-x="720" d="M63 115l181 401l-181 404h148l168 -371v-64l-168 -370h-148zM344 115l180 401l-180 404h148l167 -371v-64l-167 -370h-148z" />
<glyph unicode="&#xbc;" horiz-adv-x="1140" d="M29 1270v78l184 77h66v-856h-127v715zM109 -82l731 1542h123l-734 -1542h-120zM614 186v84l285 580h115v-557h69v-107h-69v-186h-123v186h-277zM733 293h158v321h-2l-156 -317v-4z" />
<glyph unicode="&#xbd;" horiz-adv-x="1204" d="M29 1270v78l184 77h66v-856h-127v715zM96 -82l731 1542h123l-733 -1542h-121zM743 0v76l179 272q84 128 84 250q0 160 -129 160q-67 0 -123 -31v100q59 35 157 35q115 0 173.5 -65.5t58.5 -190.5q0 -142 -107 -303l-131 -190v-4h252v-109h-414z" />
<glyph unicode="&#xbe;" horiz-adv-x="1210" d="M43 590v106q48 -32 125 -32q72 0 109.5 34t37.5 119q0 74 -29.5 107.5t-95.5 33.5h-59v105h57q109 0 109 129q0 74 -30.5 101.5t-102.5 27.5q-61 0 -105 -21v105q61 27 150 27q219 0 219 -209q0 -91 -30.5 -136.5t-86.5 -64.5v-2q138 -26 138 -213q0 -120 -63.5 -187 t-178.5 -67q-111 0 -164 37zM188 -82l732 1542h122l-733 -1542h-121zM684 186v84l285 580h114v-557h70v-107h-70v-186h-122v186h-277zM803 293h158v321h-3l-155 -317v-4z" />
<glyph unicode="&#xbf;" horiz-adv-x="624" d="M43 68q0 114 33 189t125 177q71 80 89.5 118t18.5 110v116h150v-133q0 -44 -6 -78t-13.5 -57.5t-31 -57t-40 -53.5t-59.5 -69q-58 -65 -78 -116t-20 -138q0 -110 53 -155.5t152 -45.5q83 0 172 29v-131q-84 -37 -217 -37q-158 0 -243 84.5t-85 247.5zM295 981v193h172 v-193h-172z" />
<glyph unicode="&#xc0;" horiz-adv-x="888" d="M29 0l313 1419h199l319 -1419h-158l-86 383h-356l-82 -383h-149zM262 1737h166l76 -232h-123zM291 518h297l-117 529q-7 33 -14.5 80.5t-10.5 78.5l-4 31h-6q-14 -116 -30 -190z" />
<glyph unicode="&#xc1;" horiz-adv-x="888" d="M29 0l313 1419h199l319 -1419h-158l-86 383h-356l-82 -383h-149zM291 518h297l-117 529q-7 33 -14.5 80.5t-10.5 78.5l-4 31h-6q-14 -116 -30 -190zM381 1507l84 232h168l-125 -232h-127z" />
<glyph unicode="&#xc2;" horiz-adv-x="888" d="M29 0l313 1419h199l319 -1419h-158l-86 383h-356l-82 -383h-149zM227 1505l148 221h131l147 -221h-121l-94 109l-90 -109h-121zM291 518h297l-117 529q-7 33 -14.5 80.5t-10.5 78.5l-4 31h-6q-14 -116 -30 -190z" />
<glyph unicode="&#xc3;" horiz-adv-x="888" d="M29 0l313 1419h199l319 -1419h-158l-86 383h-356l-82 -383h-149zM211 1522q3 97 41 146.5t100 49.5q47 0 99 -28.5t79 -28.5q46 0 52 63h102q-5 -92 -42 -145t-103 -53q-41 0 -93 30.5t-77 30.5q-49 0 -56 -65h-102zM291 518h297l-117 529q-7 33 -14.5 80.5t-10.5 78.5 l-4 31h-6q-14 -116 -30 -190z" />
<glyph unicode="&#xc4;" horiz-adv-x="888" d="M29 0l313 1419h199l319 -1419h-158l-86 383h-356l-82 -383h-149zM231 1518v174h158v-174h-158zM291 518h297l-117 529q-7 33 -14.5 80.5t-10.5 78.5l-4 31h-6q-14 -116 -30 -190zM489 1518v174h158v-174h-158z" />
<glyph unicode="&#xc5;" horiz-adv-x="888" d="M29 0l313 1419h199l319 -1419h-158l-86 383h-356l-82 -383h-149zM291 518h297l-117 529q-7 33 -14.5 80.5t-10.5 78.5l-4 31h-6q-14 -116 -30 -190zM291 1653q0 76 43.5 121t111.5 45q70 0 114 -44t44 -118q0 -77 -44 -122.5t-114 -45.5q-68 0 -111.5 43.5t-43.5 120.5z M375 1655q0 -41 19.5 -64.5t51.5 -23.5q34 0 54 23.5t20 64.5q0 38 -20 62t-54 24t-52.5 -23t-18.5 -63z" />
<glyph unicode="&#xc6;" horiz-adv-x="1249" d="M-4 0l504 1419h704v-139h-434v-475h346v-139h-346v-527h440v-139h-600v385h-321l-133 -385h-160zM338 524h272v760h-6z" />
<glyph unicode="&#xc7;" horiz-adv-x="817" d="M74 623v161q0 126 16 227t47 171.5t72 121t94.5 79.5t110 42t123.5 13q138 0 221 -62v-133q-110 55 -228 55q-69 0 -119 -23t-89.5 -78.5t-59.5 -156t-20 -247.5v-170q0 -257 67 -379.5t228 -122.5q125 0 235 65v-133q-92 -71 -250 -71q-29 0 -41 2v-86 q67 -3 108.5 -38.5t41.5 -101.5q0 -93 -64 -143t-209 -57v102q82 9 117 28.5t35 57.5q0 36 -29 50t-90 14v186q-159 38 -238 188.5t-79 438.5z" />
<glyph unicode="&#xc8;" horiz-adv-x="751" d="M113 0v1419h594v-137h-435v-477h346v-137h-346v-531h441v-137h-600zM254 1737h166l76 -232h-123z" />
<glyph unicode="&#xc9;" horiz-adv-x="751" d="M113 0v1419h594v-137h-435v-477h346v-137h-346v-531h441v-137h-600zM356 1507l84 232h168l-125 -232h-127z" />
<glyph unicode="&#xca;" horiz-adv-x="751" d="M113 0v1419h594v-137h-435v-477h346v-137h-346v-531h441v-137h-600zM203 1505l147 221h131l148 -221h-121l-94 109l-90 -109h-121z" />
<glyph unicode="&#xcb;" horiz-adv-x="751" d="M113 0v1419h594v-137h-435v-477h346v-137h-346v-531h441v-137h-600zM207 1518v174h158v-174h-158zM465 1518v174h158v-174h-158z" />
<glyph unicode="&#xcc;" horiz-adv-x="385" d="M10 1737h166l76 -232h-123zM113 0v1419h159v-1419h-159z" />
<glyph unicode="&#xcd;" horiz-adv-x="385" d="M113 0v1419h159v-1419h-159zM133 1507l84 232h168l-125 -232h-127z" />
<glyph unicode="&#xce;" horiz-adv-x="385" d="M4 1505l119 221h131l117 -221h-109l-76 113l-71 -113h-111zM113 0v1419h159v-1419h-159z" />
<glyph unicode="&#xcf;" horiz-adv-x="385" d="M0 1518v174h147v-174h-147zM113 0v1419h159v-1419h-159zM233 1518v174h148v-174h-148z" />
<glyph unicode="&#xd0;" horiz-adv-x="935" d="M12 647v131h94v641h275q240 0 362.5 -153.5t122.5 -483.5v-102q0 -326 -120.5 -503t-364.5 -177h-275v647h-94zM266 137h119q160 0 236.5 123t76.5 389v133q0 142 -22.5 241t-66.5 155t-102 80t-138 24h-103v-504h254v-131h-254v-510z" />
<glyph unicode="&#xd1;" horiz-adv-x="958" d="M113 0v1419h211l311 -946q16 -47 36 -121.5t32 -125.5l12 -50h4q-19 125 -19 270v973h146v-1419h-195l-305 909q-24 71 -49 154.5t-38 131.5l-13 48h-4q18 -110 18 -317v-926h-147zM270 1522q3 97 41.5 146.5t100.5 49.5q47 0 99 -28.5t79 -28.5q45 0 51 63h102 q-5 -92 -42 -145t-103 -53q-41 0 -93 30.5t-77 30.5q-48 0 -55 -65h-103z" />
<glyph unicode="&#xd2;" horiz-adv-x="962" d="M74 639v137q0 332 95 497t306 165q213 0 313.5 -155t100.5 -497v-155q0 -319 -94.5 -484t-311.5 -165q-81 0 -144 21t-114 68.5t-83.5 123t-50 186.5t-17.5 258zM242 639q0 -131 11.5 -224t38 -162t73.5 -102.5t116 -33.5q129 0 184.5 121t55.5 366v182q0 264 -54 390.5 t-188 126.5q-68 0 -115 -34t-73.5 -101t-37.5 -152t-11 -201v-176zM315 1737h166l76 -232h-123z" />
<glyph unicode="&#xd3;" horiz-adv-x="962" d="M74 639v137q0 332 95 497t306 165q213 0 313.5 -155t100.5 -497v-155q0 -319 -94.5 -484t-311.5 -165q-81 0 -144 21t-114 68.5t-83.5 123t-50 186.5t-17.5 258zM242 639q0 -131 11.5 -224t38 -162t73.5 -102.5t116 -33.5q129 0 184.5 121t55.5 366v182q0 264 -54 390.5 t-188 126.5q-68 0 -115 -34t-73.5 -101t-37.5 -152t-11 -201v-176zM424 1507l84 232h168l-125 -232h-127z" />
<glyph unicode="&#xd4;" horiz-adv-x="962" d="M74 639v137q0 332 95 497t306 165q213 0 313.5 -155t100.5 -497v-155q0 -319 -94.5 -484t-311.5 -165q-81 0 -144 21t-114 68.5t-83.5 123t-50 186.5t-17.5 258zM242 639q0 -131 11.5 -224t38 -162t73.5 -102.5t116 -33.5q129 0 184.5 121t55.5 366v182q0 264 -54 390.5 t-188 126.5q-68 0 -115 -34t-73.5 -101t-37.5 -152t-11 -201v-176zM266 1505l148 221h131l147 -221h-121l-94 109l-90 -109h-121z" />
<glyph unicode="&#xd5;" horiz-adv-x="962" d="M74 639v137q0 332 95 497t306 165q213 0 313.5 -155t100.5 -497v-155q0 -319 -94.5 -484t-311.5 -165q-81 0 -144 21t-114 68.5t-83.5 123t-50 186.5t-17.5 258zM242 639q0 -131 11.5 -224t38 -162t73.5 -102.5t116 -33.5q129 0 184.5 121t55.5 366v182q0 264 -54 390.5 t-188 126.5q-68 0 -115 -34t-73.5 -101t-37.5 -152t-11 -201v-176zM242 1522q3 97 41 146.5t100 49.5q47 0 99 -28.5t79 -28.5q45 0 51 63h103q-5 -91 -42.5 -144.5t-103.5 -53.5q-41 0 -93 30.5t-77 30.5q-48 0 -55 -65h-102z" />
<glyph unicode="&#xd6;" horiz-adv-x="962" d="M74 639v137q0 332 95 497t306 165q213 0 313.5 -155t100.5 -497v-155q0 -319 -94.5 -484t-311.5 -165q-81 0 -144 21t-114 68.5t-83.5 123t-50 186.5t-17.5 258zM242 639q0 -131 11.5 -224t38 -162t73.5 -102.5t116 -33.5q129 0 184.5 121t55.5 366v182q0 264 -54 390.5 t-188 126.5q-68 0 -115 -34t-73.5 -101t-37.5 -152t-11 -201v-176zM272 1518v174h158v-174h-158zM530 1518v174h158v-174h-158z" />
<glyph unicode="&#xd7;" horiz-adv-x="847" d="M109 496l229 245l-217 236l98 92l209 -229l213 229l92 -90l-217 -234l223 -243l-92 -94l-223 239l-223 -239z" />
<glyph unicode="&#xd8;" horiz-adv-x="962" d="M16 0l121 221q-63 156 -63 428v127q0 334 98.5 498t321.5 164q155 0 249 -109l52 90h129l-111 -200q76 -166 76 -431v-157q0 -319 -97.5 -484t-320.5 -165q-172 0 -268 124l-60 -106h-127zM242 506q0 -61 4 -88l422 772q-61 113 -189 113q-68 0 -115 -34t-73.5 -101 t-37.5 -152t-11 -201v-309zM283 254q62 -137 198 -137q129 0 184.5 121t55.5 366v316q0 69 -8 116z" />
<glyph unicode="&#xd9;" horiz-adv-x="940" d="M106 369v1050h160v-1034q0 -138 48.5 -204t160.5 -66t156.5 65t44.5 207v1032h158v-1044q0 -188 -90 -290.5t-275 -102.5q-363 0 -363 387zM299 1737h166l76 -232h-123z" />
<glyph unicode="&#xda;" horiz-adv-x="940" d="M106 369v1050h160v-1034q0 -138 48.5 -204t160.5 -66t156.5 65t44.5 207v1032h158v-1044q0 -188 -90 -290.5t-275 -102.5q-363 0 -363 387zM412 1507l84 232h168l-125 -232h-127z" />
<glyph unicode="&#xdb;" horiz-adv-x="940" d="M106 369v1050h160v-1034q0 -138 48.5 -204t160.5 -66t156.5 65t44.5 207v1032h158v-1044q0 -188 -90 -290.5t-275 -102.5q-363 0 -363 387zM254 1505l147 221h131l148 -221h-121l-94 109l-90 -109h-121z" />
<glyph unicode="&#xdc;" horiz-adv-x="940" d="M106 369v1050h160v-1034q0 -138 48.5 -204t160.5 -66t156.5 65t44.5 207v1032h158v-1044q0 -188 -90 -290.5t-275 -102.5q-363 0 -363 387zM260 1518v174h158v-174h-158zM518 1518v174h158v-174h-158z" />
<glyph unicode="&#xdd;" horiz-adv-x="835" d="M25 1419h170l167 -501q21 -63 36.5 -113t20.5 -69l5 -19h4q21 68 66 205l163 497h154l-309 -878v-541h-164v535zM365 1507l84 232h167l-124 -232h-127z" />
<glyph unicode="&#xde;" horiz-adv-x="823" d="M113 0v1419h159v-254h134q195 0 286.5 -94.5t91.5 -314.5q0 -197 -98.5 -305.5t-284.5 -108.5h-129v-342h-159zM272 479h115q122 0 175.5 67.5t53.5 209.5q0 153 -52 212.5t-177 59.5h-115v-549z" />
<glyph unicode="&#xdf;" horiz-adv-x="839" d="M96 0v1145q0 99 27 171t75.5 112.5t108 59.5t133.5 19q133 0 207 -67.5t74 -196.5q0 -64 -20.5 -123.5t-49.5 -104.5t-58.5 -87t-50 -86.5t-20.5 -87.5q0 -98 72 -158l76 -64q69 -59 105 -120.5t36 -151.5q0 -129 -77.5 -203.5t-203.5 -74.5q-118 0 -176 38v130 q80 -35 162 -35q63 0 102 35.5t39 97.5q0 50 -18.5 85t-65.5 75l-67 57q-71 60 -104 124t-33 152q0 58 20 114.5t49 101.5t58 89t49 93.5t20 97.5q0 67 -36 102t-101 35q-176 0 -176 -244v-1130h-156z" />
<glyph unicode="&#xe0;" d="M43 287q0 140 67.5 215t211.5 102l167 31v104q0 105 -39 148t-141 43q-104 0 -192 -41v117q97 59 248 59q146 0 213 -71t67 -214v-780h-127l-16 61h-8q-32 -32 -82 -53.5t-101 -21.5q-128 0 -198 75.5t-70 225.5zM156 1470h168l125 -268h-127zM205 301q0 -97 35.5 -143.5 t115.5 -46.5q74 0 133 39v356l-114 -17q-87 -12 -128.5 -57t-41.5 -131z" />
<glyph unicode="&#xe1;" d="M43 287q0 140 67.5 215t211.5 102l167 31v104q0 105 -39 148t-141 43q-104 0 -192 -41v117q97 59 248 59q146 0 213 -71t67 -214v-780h-127l-16 61h-8q-32 -32 -82 -53.5t-101 -21.5q-128 0 -198 75.5t-70 225.5zM205 301q0 -97 35.5 -143.5t115.5 -46.5q74 0 133 39v356 l-114 -17q-87 -12 -128.5 -57t-41.5 -131zM276 1202l125 268h168l-166 -268h-127z" />
<glyph unicode="&#xe2;" d="M43 287q0 140 67.5 215t211.5 102l167 31v104q0 105 -39 148t-141 43q-104 0 -192 -41v117q97 59 248 59q146 0 213 -71t67 -214v-780h-127l-16 61h-8q-32 -32 -82 -53.5t-101 -21.5q-128 0 -198 75.5t-70 225.5zM141 1202l158 262h139l154 -262h-119l-106 139l-105 -139 h-121zM205 301q0 -97 35.5 -143.5t115.5 -46.5q74 0 133 39v356l-114 -17q-87 -12 -128.5 -57t-41.5 -131z" />
<glyph unicode="&#xe3;" d="M43 287q0 140 67.5 215t211.5 102l167 31v104q0 105 -39 148t-141 43q-104 0 -192 -41v117q97 59 248 59q146 0 213 -71t67 -214v-780h-127l-16 61h-8q-32 -32 -82 -53.5t-101 -21.5q-128 0 -198 75.5t-70 225.5zM115 1229q3 96 42.5 146t102.5 50q37 0 68 -15.5 t56.5 -31.5t51.5 -16q43 0 49 70h103q-5 -91 -44 -144t-106 -53q-42 0 -91.5 31.5t-74.5 31.5q-49 0 -55 -69h-102zM205 301q0 -97 35.5 -143.5t115.5 -46.5q74 0 133 39v356l-114 -17q-87 -12 -128.5 -57t-41.5 -131z" />
<glyph unicode="&#xe4;" d="M43 287q0 140 67.5 215t211.5 102l167 31v104q0 105 -39 148t-141 43q-104 0 -192 -41v117q97 59 248 59q146 0 213 -71t67 -214v-780h-127l-16 61h-8q-32 -32 -82 -53.5t-101 -21.5q-128 0 -198 75.5t-70 225.5zM141 1241v174h158v-174h-158zM205 301q0 -97 35.5 -143.5 t115.5 -46.5q74 0 133 39v356l-114 -17q-87 -12 -128.5 -57t-41.5 -131zM434 1241v174h158v-174h-158z" />
<glyph unicode="&#xe5;" d="M43 287q0 140 67.5 215t211.5 102l167 31v104q0 105 -39 148t-141 43q-104 0 -192 -41v117q97 59 248 59q146 0 213 -71t67 -214v-780h-127l-16 61h-8q-32 -32 -82 -53.5t-101 -21.5q-128 0 -198 75.5t-70 225.5zM203 1346q0 75 43 120t112 45q70 0 114 -43.5t44 -117.5 q0 -77 -44 -122.5t-114 -45.5q-68 0 -111.5 43.5t-43.5 120.5zM205 301q0 -97 35.5 -143.5t115.5 -46.5q74 0 133 39v356l-114 -17q-87 -12 -128.5 -57t-41.5 -131zM287 1348q0 -41 19.5 -64.5t51.5 -23.5q34 0 54 23.5t20 64.5q0 38 -20 62t-54 24t-52.5 -23t-18.5 -63z " />
<glyph unicode="&#xe6;" horiz-adv-x="1183" d="M43 283q0 262 289 305l155 22v129q0 105 -39 148t-141 43q-104 0 -192 -41v117q97 59 256 59q165 0 215 -129q78 129 235 129q154 0 231.5 -111.5t77.5 -361.5v-109h-487v-10q0 -185 56 -269.5t180 -84.5q117 0 229 71v-116q-31 -33 -103 -60.5t-139 -27.5 q-199 0 -291 123q-103 -123 -270 -123q-126 0 -194 76t-68 221zM201 289q0 -90 35.5 -134t109.5 -44q106 0 182 82q-45 110 -45 292l-104 -14q-93 -12 -135.5 -55.5t-42.5 -126.5zM643 612h328q0 167 -36 244.5t-128 77.5q-47 0 -80 -24t-50.5 -70.5t-25 -100.5t-8.5 -127z " />
<glyph unicode="&#xe7;" horiz-adv-x="665" d="M57 481v92q0 492 377 492q113 0 182 -51v-131q-96 49 -188 49q-52 0 -90 -17t-61 -45.5t-36.5 -74.5t-18.5 -94.5t-5 -114.5v-105q0 -198 53 -280t164 -82q95 0 195 57v-127q-82 -63 -211 -63q-25 0 -35 2v-90q67 -3 108 -38.5t41 -101.5q0 -93 -63.5 -143t-208.5 -57 v102q82 9 117 28.5t35 57.5q0 36 -29 50t-90 14v192q-117 35 -176.5 150.5t-59.5 328.5z" />
<glyph unicode="&#xe8;" horiz-adv-x="757" d="M57 483v76q0 254 78.5 380t249.5 126q165 0 242.5 -111t77.5 -379v-108h-488q0 -182 56 -265t180 -83q117 0 229 71v-116q-32 -34 -100 -61t-142 -27q-198 0 -290.5 119.5t-92.5 377.5zM182 1470h168l125 -268h-127zM217 596h328q0 183 -35.5 260.5t-128.5 77.5 q-96 0 -130 -79t-34 -259z" />
<glyph unicode="&#xe9;" horiz-adv-x="757" d="M57 483v76q0 254 78.5 380t249.5 126q165 0 242.5 -111t77.5 -379v-108h-488q0 -182 56 -265t180 -83q117 0 229 71v-116q-32 -34 -100 -61t-142 -27q-198 0 -290.5 119.5t-92.5 377.5zM217 596h328q0 183 -35.5 260.5t-128.5 77.5q-96 0 -130 -79t-34 -259zM307 1202 l125 268h168l-166 -268h-127z" />
<glyph unicode="&#xea;" horiz-adv-x="757" d="M57 483v76q0 254 78.5 380t249.5 126q165 0 242.5 -111t77.5 -379v-108h-488q0 -182 56 -265t180 -83q117 0 229 71v-116q-32 -34 -100 -61t-142 -27q-198 0 -290.5 119.5t-92.5 377.5zM166 1202l158 262h139l153 -262h-118l-107 139l-104 -139h-121zM217 596h328 q0 183 -35.5 260.5t-128.5 77.5q-96 0 -130 -79t-34 -259z" />
<glyph unicode="&#xeb;" horiz-adv-x="757" d="M57 483v76q0 254 78.5 380t249.5 126q165 0 242.5 -111t77.5 -379v-108h-488q0 -182 56 -265t180 -83q117 0 229 71v-116q-32 -34 -100 -61t-142 -27q-198 0 -290.5 119.5t-92.5 377.5zM174 1245v174h158v-174h-158zM217 596h328q0 183 -35.5 260.5t-128.5 77.5 q-96 0 -130 -79t-34 -259zM467 1245v174h158v-174h-158z" />
<glyph unicode="&#xec;" horiz-adv-x="352" d="M-35 1470h168l125 -268h-127zM98 0v1051h156v-1051h-156z" />
<glyph unicode="&#xed;" horiz-adv-x="352" d="M92 1202l125 268h168l-166 -268h-127zM98 0v1051h156v-1051h-156z" />
<glyph unicode="&#xee;" horiz-adv-x="352" d="M-20 1202l129 266h133l131 -266h-121l-78 133l-74 -133h-120zM98 0v1051h156v-1051h-156z" />
<glyph unicode="&#xef;" horiz-adv-x="352" d="M-14 1245v174h147v-174h-147zM98 0v1051h156v-1051h-156zM219 1245v174h148v-174h-148z" />
<glyph unicode="&#xf0;" horiz-adv-x="819" d="M55 500v53q0 247 88 379.5t248 132.5q76 0 123 -33h6q-43 110 -104 199l-170 -96l-56 92l158 92q-69 83 -178 174h199q58 -48 108 -100l129 73l53 -94l-112 -65q217 -291 217 -707v-59q0 -267 -83.5 -411t-270.5 -144q-355 0 -355 514zM223 494q0 -108 14 -182.5 t40.5 -114t59.5 -56t77 -16.5q101 0 141.5 95.5t40.5 320.5v55q0 168 -35 305q-54 31 -135 31q-203 0 -203 -359v-79z" />
<glyph unicode="&#xf1;" horiz-adv-x="819" d="M96 0v1051h150v-78h6q124 92 256 92q217 0 217 -236v-829h-156v821q0 59 -31 85t-94 26q-101 0 -192 -60v-872h-156zM197 1229q3 96 42.5 146t102.5 50q37 0 68 -15.5t56.5 -31.5t51.5 -16q43 0 49 70h103q-5 -91 -44 -144t-106 -53q-42 0 -91.5 31.5t-74.5 31.5 q-49 0 -55 -69h-102z" />
<glyph unicode="&#xf2;" horiz-adv-x="806" d="M55 479v92q0 228 90 361t258 133q349 0 349 -494v-92q0 -228 -88.5 -360.5t-260.5 -132.5q-348 0 -348 493zM193 1470h167l125 -268h-127zM217 449q0 -71 9.5 -128.5t31 -105t59 -74t89.5 -26.5q50 0 86.5 26.5t57 74t30.5 105.5t10 128v153q0 334 -187 334 q-186 0 -186 -334v-153z" />
<glyph unicode="&#xf3;" horiz-adv-x="806" d="M55 479v92q0 228 90 361t258 133q349 0 349 -494v-92q0 -228 -88.5 -360.5t-260.5 -132.5q-348 0 -348 493zM217 449q0 -71 9.5 -128.5t31 -105t59 -74t89.5 -26.5q50 0 86.5 26.5t57 74t30.5 105.5t10 128v153q0 334 -187 334q-186 0 -186 -334v-153zM317 1202l125 268 h168l-166 -268h-127z" />
<glyph unicode="&#xf4;" horiz-adv-x="806" d="M55 479v92q0 228 90 361t258 133q349 0 349 -494v-92q0 -228 -88.5 -360.5t-260.5 -132.5q-348 0 -348 493zM176 1202l158 262h139l154 -262h-119l-107 139l-104 -139h-121zM217 449q0 -71 9.5 -128.5t31 -105t59 -74t89.5 -26.5q50 0 86.5 26.5t57 74t30.5 105.5t10 128 v153q0 334 -187 334q-186 0 -186 -334v-153z" />
<glyph unicode="&#xf5;" horiz-adv-x="806" d="M55 479v92q0 228 90 361t258 133q349 0 349 -494v-92q0 -228 -88.5 -360.5t-260.5 -132.5q-348 0 -348 493zM164 1229q3 96 42.5 146t102.5 50q37 0 68 -15.5t56.5 -31.5t51.5 -16q44 0 50 70h102q-5 -91 -44 -144t-106 -53q-42 0 -91 31.5t-74 31.5q-50 0 -56 -69h-102z M217 449q0 -71 9.5 -128.5t31 -105t59 -74t89.5 -26.5q50 0 86.5 26.5t57 74t30.5 105.5t10 128v153q0 334 -187 334q-186 0 -186 -334v-153z" />
<glyph unicode="&#xf6;" horiz-adv-x="806" d="M55 479v92q0 228 90 361t258 133q349 0 349 -494v-92q0 -228 -88.5 -360.5t-260.5 -132.5q-348 0 -348 493zM178 1245v174h158v-174h-158zM217 449q0 -71 9.5 -128.5t31 -105t59 -74t89.5 -26.5q50 0 86.5 26.5t57 74t30.5 105.5t10 128v153q0 334 -187 334 q-186 0 -186 -334v-153zM471 1245v174h158v-174h-158z" />
<glyph unicode="&#xf7;" horiz-adv-x="768" d="M70 676v141h628v-141h-628zM295 401v191h176v-191h-176zM295 893v190h176v-190h-176z" />
<glyph unicode="&#xf8;" horiz-adv-x="806" d="M29 0l90 152q-64 125 -64 327v92q0 227 90.5 360.5t257.5 133.5q128 0 211 -74l35 60h121l-88 -148q70 -128 70 -332v-92q0 -228 -89.5 -360.5t-259.5 -132.5q-139 0 -219 77l-39 -63h-116zM217 401q0 -29 4 -75l320 542q-47 68 -138 68q-186 0 -186 -334v-201zM258 190 q46 -75 148 -75q50 0 86.5 26.5t57 74t30.5 105.5t10 128v198q0 49 -6 90z" />
<glyph unicode="&#xf9;" horiz-adv-x="808" d="M94 244v807h156v-822q0 -52 26 -81t101 -29q48 0 101 20t79 39v873h156v-1051h-133l-15 78h-8q-120 -92 -246 -92q-217 0 -217 258zM201 1470h168l125 -268h-127z" />
<glyph unicode="&#xfa;" horiz-adv-x="808" d="M94 244v807h156v-822q0 -52 26 -81t101 -29q48 0 101 20t79 39v873h156v-1051h-133l-15 78h-8q-120 -92 -246 -92q-217 0 -217 258zM326 1202l125 268h167l-165 -268h-127z" />
<glyph unicode="&#xfb;" horiz-adv-x="808" d="M94 244v807h156v-822q0 -52 26 -81t101 -29q48 0 101 20t79 39v873h156v-1051h-133l-15 78h-8q-120 -92 -246 -92q-217 0 -217 258zM184 1202l158 262h139l154 -262h-119l-106 139l-105 -139h-121z" />
<glyph unicode="&#xfc;" horiz-adv-x="808" d="M94 244v807h156v-822q0 -52 26 -81t101 -29q48 0 101 20t79 39v873h156v-1051h-133l-15 78h-8q-120 -92 -246 -92q-217 0 -217 258zM186 1245v174h158v-174h-158zM479 1245v174h158v-174h-158z" />
<glyph unicode="&#xfd;" d="M16 1051h172l162 -668l27 -135h4q17 88 27 131l149 672h160l-293 -1160q-39 -152 -92 -221t-160 -69q-63 0 -113 26v111q46 -8 86 -8q58 0 87 36.5t55 143.5l20 82zM295 1202l125 268h168l-166 -268h-127z" />
<glyph unicode="&#xfe;" horiz-adv-x="835" d="M113 -385v1878h155v-502h6q78 74 203 74q148 0 226.5 -113t78.5 -364v-99q0 -503 -336 -503q-107 0 -178 49v-420h-155zM268 166q55 -43 156 -43q97 0 145.5 80t48.5 262v117q0 130 -21 206t-59 106t-100 30q-97 0 -170 -47v-711z" />
<glyph unicode="&#xff;" d="M16 1051h172l162 -668l27 -135h4q17 88 27 131l149 672h160l-293 -1160q-39 -152 -92 -221t-160 -69q-63 0 -113 26v111q46 -8 86 -8q58 0 87 36.5t55 143.5l20 82zM168 1245v174h158v-174h-158zM461 1245v174h157v-174h-157z" />
<glyph unicode="&#x152;" horiz-adv-x="1304" d="M70 649v96q0 360 107 517t362 157h721v-139h-435v-475h346v-139h-346v-527h441v-139h-723q-122 0 -207 31.5t-146.5 106t-90.5 200.5t-29 311zM238 649q0 -194 32 -305t96 -156t173 -45h127v1133h-142q-162 0 -224 -120t-62 -396v-111z" />
<glyph unicode="&#x153;" horiz-adv-x="1288" d="M55 479v92q0 229 88.5 361.5t257.5 132.5q186 0 265 -168q72 168 249 168q169 0 244.5 -112t75.5 -378v-108h-487q0 -182 55.5 -265t179.5 -83q117 0 229 71v-116q-31 -33 -101 -60.5t-136 -27.5q-227 0 -309 184q-86 -184 -265 -184q-346 0 -346 493zM215 449 q0 -71 9.5 -128.5t30.5 -105t58.5 -74t89.5 -26.5q50 0 86.5 26.5t57.5 74t31 105.5t10 128v153q0 162 -44.5 248t-148.5 86q-180 0 -180 -334v-153zM748 596h327q0 183 -35.5 260.5t-128.5 77.5q-96 0 -129.5 -79t-33.5 -259z" />
<glyph unicode="&#x178;" horiz-adv-x="835" d="M25 1419h170l167 -501q21 -63 36.5 -113t20.5 -69l5 -19h4q21 68 66 205l163 497h154l-309 -878v-541h-164v535zM217 1518v174h158v-174h-158zM475 1518v174h158v-174h-158z" />
<glyph unicode="&#x2c6;" horiz-adv-x="722" d="M133 1202l158 262h139l154 -262h-119l-107 139l-104 -139h-121z" />
<glyph unicode="&#x2dc;" horiz-adv-x="722" d="M119 1229q3 96 42.5 146t102.5 50q37 0 68 -15.5t56.5 -31.5t51.5 -16q43 0 49 70h103q-5 -91 -44 -144t-106 -53q-42 0 -91.5 31.5t-74.5 31.5q-49 0 -55 -69h-102z" />
<glyph unicode="&#x2000;" horiz-adv-x="909" />
<glyph unicode="&#x2001;" horiz-adv-x="1819" />
<glyph unicode="&#x2002;" horiz-adv-x="909" />
<glyph unicode="&#x2003;" horiz-adv-x="1819" />
<glyph unicode="&#x2004;" horiz-adv-x="606" />
<glyph unicode="&#x2005;" horiz-adv-x="454" />
<glyph unicode="&#x2006;" horiz-adv-x="303" />
<glyph unicode="&#x2007;" horiz-adv-x="303" />
<glyph unicode="&#x2008;" horiz-adv-x="227" />
<glyph unicode="&#x2009;" horiz-adv-x="363" />
<glyph unicode="&#x200a;" horiz-adv-x="101" />
<glyph unicode="&#x2010;" horiz-adv-x="475" d="M88 494v137h299v-137h-299z" />
<glyph unicode="&#x2011;" horiz-adv-x="475" d="M88 494v137h299v-137h-299z" />
<glyph unicode="&#x2012;" horiz-adv-x="475" d="M88 494v137h299v-137h-299z" />
<glyph unicode="&#x2013;" horiz-adv-x="624" d="M53 516v127h518v-127h-518z" />
<glyph unicode="&#x2014;" horiz-adv-x="1036" d="M53 516v127h930v-127h-930z" />
<glyph unicode="&#x2018;" horiz-adv-x="309" d="M41 1049l80 370h123l-37 -370h-166z" />
<glyph unicode="&#x2019;" horiz-adv-x="309" d="M66 1049l36 370h166l-80 -370h-122z" />
<glyph unicode="&#x201a;" horiz-adv-x="309" d="M66 -158l36 371h166l-80 -371h-122z" />
<glyph unicode="&#x201c;" horiz-adv-x="569" d="M41 1049l80 370h123l-37 -370h-166zM301 1049l80 370h123l-37 -370h-166z" />
<glyph unicode="&#x201d;" horiz-adv-x="569" d="M66 1049l36 370h166l-80 -370h-122zM326 1049l36 370h166l-79 -370h-123z" />
<glyph unicode="&#x201e;" horiz-adv-x="569" d="M66 -158l36 371h166l-80 -371h-122zM326 -158l36 371h166l-79 -371h-123z" />
<glyph unicode="&#x2022;" horiz-adv-x="546" d="M68 653q0 91 57.5 150t146.5 59q91 0 149 -59t58 -150q0 -90 -57.5 -148.5t-149.5 -58.5q-90 0 -147 58.5t-57 148.5z" />
<glyph unicode="&#x2026;" horiz-adv-x="1099" d="M102 0v190h177v-190h-177zM463 0v190h176v-190h-176zM821 0v190h176v-190h-176z" />
<glyph unicode="&#x202f;" horiz-adv-x="363" />
<glyph unicode="&#x2039;" horiz-adv-x="440" d="M61 485v64l168 371h148l-180 -404l180 -401h-148z" />
<glyph unicode="&#x203a;" horiz-adv-x="440" d="M63 115l181 401l-181 404h148l168 -371v-64l-168 -370h-148z" />
<glyph unicode="&#x205f;" horiz-adv-x="454" />
<glyph unicode="&#x20ac;" horiz-adv-x="811" d="M37 485v144h96v153h-96v144h100q11 152 46 255t93.5 158t127 77t161.5 22q115 0 191 -54v-133q-100 47 -199 47q-61 0 -102.5 -15.5t-74 -56t-50 -114t-23.5 -186.5h338v-144h-340v-153h340v-144h-338q12 -194 71 -279t185 -85q103 0 203 57v-133q-86 -63 -215 -63 q-94 0 -163 24.5t-124 81t-86.5 155.5t-40.5 242h-100z" />
<glyph unicode="&#x2122;" horiz-adv-x="964" d="M25 1323v96h346v-96h-121v-492h-107v492h-118zM440 831v588h152l84 -420h4l84 420h158v-588h-103v449h-4l-94 -449h-94l-95 449h-4v-449h-88z" />
<glyph unicode="&#x25fc;" horiz-adv-x="1054" d="M0 0v1055h1055v-1055h-1055z" />
</font>
</defs>
</svg>
